<?xml version="1.0" encoding="UTF-8"?>
<svg width="74px" height="122px" viewBox="0 0 74 122" version="1.1" xmlns="http://www.w3.org/2000/svg" xmlns:xlink="http://www.w3.org/1999/xlink">
    <!-- Generator: Sketch 51.2 (57519) - http://www.bohemiancoding.com/sketch -->
    <title>Group 11</title>
    <desc>Created with Sketch.</desc>
    <defs></defs>
    <g id="Page-1" stroke="none" stroke-width="1" fill="none" fill-rule="evenodd">
        <g id="Artboard" transform="translate(-27.000000, -3.000000)">
            <g id="Group-11" transform="translate(27.428571, 3.047619)">
                <polygon id="Triangle" fill="#2D79AF" transform="translate(60.952381, 15.238095) rotate(90.000000) translate(-60.952381, -15.238095) " points="60.952381 3.04761905 76.1904762 27.4285714 45.7142857 27.4285714"></polygon>
                <polygon id="Triangle-Copy-3" fill="#6EF7C8" transform="translate(60.952381, 45.714286) rotate(90.000000) translate(-60.952381, -45.714286) " points="60.952381 33.5238095 76.1904762 57.9047619 45.7142857 57.9047619"></polygon>
                <polygon id="Triangle-Copy-8" fill="#0F0766" transform="translate(12.190476, 76.190476) rotate(90.000000) translate(-12.190476, -76.190476) " points="12.1904762 64 27.4285714 88.3809524 -3.04761905 88.3809524"></polygon>
                <polygon id="Triangle-Copy" fill="#0F0766" transform="translate(36.571429, 30.476190) rotate(90.000000) translate(-36.571429, -30.476190) " points="36.5714286 18.2857143 51.8095238 42.6666667 21.3333333 42.6666667"></polygon>
                <polygon id="Triangle-Copy-4" fill="#0F0766" transform="translate(36.571429, 60.952381) rotate(90.000000) translate(-36.571429, -60.952381) " points="36.5714286 48.7619048 51.8095238 73.1428571 21.3333333 73.1428571"></polygon>
                <polygon id="Triangle-Copy-13" fill="#6EF7C8" transform="translate(60.952381, 106.666667) rotate(90.000000) translate(-60.952381, -106.666667) " points="60.952381 94.4761905 76.1904762 118.857143 45.7142857 118.857143"></polygon>
                <polygon id="Triangle-Copy-11" fill="#0F0766" transform="translate(36.571429, 91.428571) rotate(90.000000) translate(-36.571429, -91.428571) " points="36.5714286 79.2380952 51.8095238 103.619048 21.3333333 103.619048"></polygon>
                <polygon id="Triangle-Copy-7" fill="#2D79AF" transform="translate(60.952381, 76.190476) rotate(90.000000) translate(-60.952381, -76.190476) " points="60.952381 64 76.1904762 88.3809524 45.7142857 88.3809524"></polygon>
                <polygon id="Triangle" fill="#6EF7C8" points="24.3809524 15.2380952 48.7619048 30.4761905 48.7619048 2.52280822e-15"></polygon>
                <polygon id="Triangle-Copy-5" fill="#2D79AF" transform="translate(36.571429, 45.714286) scale(-1, 1) rotate(90.000000) translate(-36.571429, -45.714286) " points="36.5714286 33.5238095 51.8095238 57.9047619 21.3333333 57.9047619"></polygon>
                <polygon id="Triangle-Copy-12" fill="#2D79AF" transform="translate(36.571429, 106.666667) scale(-1, 1) rotate(90.000000) translate(-36.571429, -106.666667) " points="36.5714286 94.4761905 51.8095238 118.857143 21.3333333 118.857143"></polygon>
                <polygon id="Triangle-Copy-2" fill="#0F0766" transform="translate(60.952381, 30.476190) scale(-1, 1) rotate(90.000000) translate(-60.952381, -30.476190) " points="60.952381 18.2857143 76.1904762 42.6666667 45.7142857 42.6666667"></polygon>
                <polygon id="Triangle-Copy-9" fill="#6EF7C8" transform="translate(12.190476, 60.952381) scale(-1, 1) rotate(90.000000) translate(-12.190476, -60.952381) " points="12.1904762 48.7619048 27.4285714 73.1428571 -3.04761905 73.1428571"></polygon>
                <polygon id="Triangle-Copy-14" fill="#0F0766" transform="translate(60.952381, 91.428571) scale(-1, 1) rotate(90.000000) translate(-60.952381, -91.428571) " points="60.952381 79.2380952 76.1904762 103.619048 45.7142857 103.619048"></polygon>
                <polygon id="Triangle-Copy-6" fill="#0F0766" transform="translate(60.952381, 60.952381) scale(-1, 1) rotate(90.000000) translate(-60.952381, -60.952381) " points="60.952381 48.7619048 76.1904762 73.1428571 45.7142857 73.1428571"></polygon>
                <polygon id="Triangle-Copy-10" fill="#2D79AF" transform="translate(12.190476, 91.428571) scale(-1, 1) rotate(90.000000) translate(-12.190476, -91.428571) " points="12.1904762 79.2380952 27.4285714 103.619048 -3.04761905 103.619048"></polygon>
            </g>
        </g>
    </g>
</svg>